<svg width="108" height="26" viewBox="0 0 108 26" fill="none" xmlns="http://www.w3.org/2000/svg">
<path fill-rule="evenodd" clip-rule="evenodd" d="M104.764 25.7784L104.768 24.3877C104.393 24.788 103.892 25.1568 103.264 25.494C102.636 25.8312 101.849 25.9997 100.902 25.9997C99.7363 25.9997 98.7192 25.805 97.8512 25.4152C96.9831 25.0254 96.2642 24.5144 95.6937 23.8823C95.1235 23.2501 94.702 22.5284 94.429 21.7172C94.1563 20.9058 94.0212 20.0684 94.0238 19.2045C94.0261 18.3618 94.1714 17.5241 94.4597 16.6917C94.7479 15.8592 95.1792 15.1165 95.7532 14.4633C96.3271 13.8101 97.0435 13.2831 97.9029 12.8828C98.7619 12.4825 99.7527 12.2822 100.875 12.2822C101.623 12.2822 102.36 12.4139 103.085 12.6773C103.81 12.9406 104.381 13.2831 104.798 13.7045L104.816 7.54078C104.817 7.18252 104.763 6.84529 104.654 6.52936C104.544 6.21315 104.226 6.04468 103.698 6.02365L103.699 5.70744L107.002 4.72756L106.949 23.724C106.948 23.8925 106.969 24.077 107.013 24.277C107.056 24.4773 107.122 24.6616 107.209 24.8303C107.297 24.9988 107.407 25.1465 107.538 25.273C107.67 25.3994 107.824 25.4625 108 25.4625L107.999 25.7787L104.764 25.7784ZM102.49 24.6881C102.05 24.8671 101.599 24.9568 101.136 24.9568C100.322 24.9355 99.6077 24.7352 98.9927 24.3559C98.3778 23.9766 97.8564 23.4972 97.4291 22.9176C97.0016 22.3383 96.6787 21.6852 96.4609 20.9581C96.2428 20.2311 96.135 19.4988 96.1371 18.7613C96.1388 18.1291 96.2396 17.4917 96.4395 16.8491C96.6394 16.2064 96.9381 15.6269 97.3356 15.1106C97.733 14.5944 98.2183 14.1728 98.7911 13.8464C99.3642 13.5199 100.014 13.3564 100.74 13.3564C101.18 13.3564 101.636 13.4461 102.109 13.6251C102.581 13.8041 103.015 14.0622 103.41 14.3994C103.805 14.7366 104.134 15.1422 104.397 15.6164C104.66 16.0905 104.79 16.6225 104.788 17.2126L104.776 21.543C104.775 22.0276 104.669 22.4755 104.459 22.8864C104.249 23.2975 103.978 23.6557 103.647 23.9611C103.316 24.2668 102.931 24.5089 102.49 24.6881Z" fill="white"/>
<path d="M90.4085 14.0203C90.6941 14.1254 90.9686 14.3888 91.2311 14.8104L92.2268 12.8824C91.9192 12.735 91.5235 12.5981 91.0399 12.4716C90.5564 12.3452 90.1603 12.2818 89.8524 12.2818C89.4122 12.2818 89.0271 12.3399 88.6967 12.4559C88.3662 12.5718 88.0635 12.7192 87.7879 12.8982C87.5121 13.0775 87.2642 13.2775 87.0435 13.4988C86.8229 13.7201 86.6131 13.9467 86.4144 14.1785L86.4199 12.2818L83.0838 13.2302L83.0833 13.483C83.457 13.5674 83.7424 13.7569 83.9397 14.0521C84.137 14.347 84.2352 14.6419 84.2344 14.9371L84.2095 23.7558C84.2089 23.9242 84.1864 24.1035 84.1419 24.293C84.0974 24.4828 84.0255 24.667 83.9259 24.8463C83.8262 25.0256 83.7104 25.173 83.5781 25.2889C83.4458 25.4048 83.3025 25.4627 83.1485 25.4627L83.1477 25.7789H87.4381L87.439 25.4627C87.2628 25.4627 87.1146 25.4048 86.9938 25.2889C86.8731 25.173 86.7636 25.0253 86.6651 24.8463C86.5666 24.667 86.4956 24.4828 86.4522 24.293C86.4086 24.1035 86.387 23.9242 86.3875 23.7558L86.4106 15.5377C86.5871 15.3689 86.802 15.1847 87.0557 14.9844C87.3093 14.7841 87.5684 14.5996 87.833 14.4311C88.0976 14.2626 88.3674 14.1257 88.6427 14.0203C88.9182 13.9149 89.1768 13.8623 89.4188 13.8623C89.7929 13.8623 90.1228 13.9149 90.4085 14.0203Z" fill="white"/>
<path fill-rule="evenodd" clip-rule="evenodd" d="M72.8161 25.9996C71.7161 25.9996 70.7265 25.8259 69.8472 25.4782C68.9682 25.1304 68.216 24.6565 67.5906 24.0559C66.9652 23.4553 66.4831 22.7441 66.1443 21.9224C65.8058 21.1008 65.6376 20.205 65.6405 19.2359C65.6434 18.2035 65.8332 17.2604 66.2096 16.4069C66.586 15.5535 67.1051 14.8215 67.7668 14.2101C68.4286 13.599 69.2112 13.1248 70.1141 12.7878C71.0174 12.4506 71.9969 12.2821 73.053 12.2821C74.1091 12.2821 75.0768 12.4456 75.956 12.7721C76.8351 13.0985 77.593 13.5569 78.2294 14.147C78.8657 14.7371 79.3588 15.4376 79.7086 16.249C80.0585 17.0604 80.2318 17.9506 80.2292 18.92C80.2266 19.826 80.0648 20.7057 79.743 21.5592C79.4215 22.4126 78.9466 23.166 78.3175 23.8191C77.6886 24.4723 76.9171 24.9993 76.0028 25.3996C75.0886 25.7999 74.0262 25.9996 72.8161 25.9996ZM70.5454 13.8781C71.1517 13.5514 71.8505 13.3669 72.6373 13.3248C73.5617 13.3248 74.3641 13.5044 75.0562 13.8626C75.7426 14.2209 76.3189 14.6895 76.7793 15.2691C77.2397 15.8484 77.5734 16.491 77.7915 17.197C78.0096 17.903 78.1176 18.6035 78.1156 19.299C78.1138 19.9732 78.0072 20.6476 77.7964 21.3218C77.5855 21.9963 77.2759 22.6019 76.8561 23.1394C76.4367 23.6766 75.9127 24.1137 75.2902 24.451C74.6622 24.7882 73.941 24.9567 73.1324 24.9567C72.3184 24.9567 71.5873 24.7882 70.9281 24.451C70.2744 24.1137 69.7091 23.6606 69.2377 23.0918C68.7663 22.5227 68.4107 21.8748 68.1597 21.1478C67.9087 20.4208 67.7845 19.6678 67.7865 18.8879C67.7885 18.2137 67.8948 17.5498 68.1057 16.8966C68.3165 16.2434 68.6262 15.6586 69.0292 15.1424C69.4376 14.6262 69.9449 14.2048 70.5454 13.8781Z" fill="white"/>
<path d="M32.9816 25.4622L32.9807 25.7784H37.3047L37.3055 25.4622C37.1293 25.4622 36.9809 25.3991 36.8604 25.2727C36.7397 25.1463 36.6299 24.9985 36.5314 24.8301C36.4329 24.6613 36.3618 24.4771 36.3185 24.2768C36.2752 24.0768 36.2535 23.8922 36.2541 23.7237L36.3075 4.72727L32.9715 5.70715L32.9706 6.02336C33.5203 6.04439 33.8499 6.21287 33.9591 6.52908C34.068 6.84501 34.1223 7.18223 34.1211 7.54049L34.0758 23.7237C34.0755 23.8922 34.0527 24.0765 34.0082 24.2768C33.9637 24.4771 33.8918 24.6616 33.7921 24.8301C33.6925 24.9988 33.5766 25.1463 33.4443 25.2727C33.3117 25.3991 33.1575 25.4622 32.9816 25.4622Z" fill="white"/>
<path d="M25.3581 25.4622L25.3572 25.7784H29.6812L29.6821 25.4622C29.5058 25.4622 29.3574 25.3991 29.2369 25.2727C29.1162 25.1463 29.0064 24.9985 28.9079 24.8301C28.8094 24.6613 28.7383 24.4771 28.695 24.2768C28.6517 24.0768 28.63 23.8922 28.6306 23.7237L28.684 4.72727L25.348 5.70715L25.3471 6.02336C25.8968 6.04439 26.2264 6.21287 26.3356 6.52908C26.4445 6.84501 26.4988 7.18223 26.4976 7.54049L26.4523 23.7237C26.452 23.8922 26.4292 24.0765 26.3847 24.2768C26.3402 24.4771 26.2683 24.6616 26.1686 24.8301C26.069 24.9988 25.9531 25.1463 25.8208 25.2727C25.6883 25.3991 25.534 25.4622 25.3581 25.4622Z" fill="white"/>
<path d="M17.4049 25.4621L17.404 25.7783L21.6948 25.7785L21.6956 25.4623C21.5194 25.4623 21.3657 25.3993 21.234 25.2728C21.1023 25.1464 20.9925 24.9987 20.905 24.8302C20.8175 24.6614 20.7519 24.4772 20.7086 24.2769C20.6653 24.0769 20.6436 23.8924 20.6442 23.7239L20.6768 12.1238L17.3737 13.1352L17.3728 13.4196C17.9006 13.4407 18.2192 13.6144 18.3284 13.9411C18.4376 14.2676 18.4916 14.61 18.4904 14.9683L18.4659 23.7236C18.4656 23.8921 18.4428 24.0763 18.3983 24.2766C18.3538 24.4769 18.2874 24.6614 18.1987 24.8299C18.1103 24.9987 17.9999 25.1461 17.8676 25.2726C17.7351 25.399 17.5808 25.4621 17.4049 25.4621Z" fill="white"/>
<path d="M18.0646 8.01452C17.7668 8.30943 17.6172 8.66769 17.616 9.0893C17.6146 9.51063 17.7619 9.8581 18.0583 10.1323C18.3547 10.4061 18.7227 10.5431 19.1629 10.5431C19.6031 10.5431 19.9775 10.4061 20.2863 10.1323C20.5951 9.85838 20.7502 9.51063 20.7513 9.0893C20.7525 8.66769 20.5994 8.30943 20.2923 8.01452C19.9853 7.71934 19.6115 7.57189 19.1716 7.57189C18.7313 7.57189 18.3625 7.71934 18.0646 8.01452Z" fill="white"/>
<path fill-rule="evenodd" clip-rule="evenodd" d="M7.07853 12.2818C8.26662 12.2818 9.29467 12.4715 10.1627 12.8508C11.0307 13.2301 11.7497 13.7358 12.3202 14.3679C12.8904 15.0001 13.3176 15.7219 13.6013 16.533C13.885 17.3444 14.0256 18.1713 14.0233 19.0142C14.021 19.8782 13.8757 20.7264 13.5871 21.5588C13.2989 22.3913 12.8621 23.1393 12.2772 23.803C11.6922 24.4667 10.9701 24.9989 10.1107 25.3992C9.25163 25.7995 8.26084 25.9995 7.1389 25.9995C6.30294 25.9995 5.5441 25.8363 4.86297 25.5096C4.18183 25.1829 3.64398 24.7878 3.24911 24.3245L3.24506 25.7785H0.0106877L0.0115516 25.4623C0.165514 25.4623 0.308789 25.3992 0.441087 25.2728C0.573386 25.1464 0.68922 24.9989 0.788877 24.8302C0.888534 24.6617 0.96046 24.4772 1.00494 24.2769C1.04943 24.0766 1.07196 23.8923 1.07254 23.7239L1.11789 7.60368C1.11905 7.24542 1.06474 6.90846 0.955839 6.59225C0.84665 6.27605 0.528037 6.10758 0 6.08655L0.000863902 5.77034L3.30399 4.79046L3.27857 13.8304C3.78581 13.3457 4.38635 12.9665 5.08048 12.6926C5.77432 12.4187 6.44044 12.2818 7.07853 12.2818ZM9.42061 24.372C8.8478 24.6985 8.16523 24.883 7.37288 24.9251C6.88904 24.9251 6.4 24.8351 5.90547 24.6562C5.41065 24.4772 4.96609 24.2191 4.57093 23.8818C4.17548 23.5446 3.85773 23.1338 3.61711 22.6491C3.3762 22.1644 3.25691 21.6166 3.25864 21.0055L3.26961 17.0863C3.27106 16.5803 3.37678 16.1011 3.58707 15.648C3.79736 15.1951 4.07351 14.8053 4.41552 14.4786C4.75724 14.1522 5.14837 13.8888 5.58917 13.6885C6.02968 13.4885 6.48088 13.3884 6.94305 13.3884C7.75735 13.3884 8.48268 13.5621 9.11991 13.9098C9.75685 14.2576 10.2892 14.7157 10.7167 15.2848C11.1442 15.8535 11.4669 16.4962 11.685 17.2127C11.9028 17.9292 12.0108 18.6668 12.0088 19.4253C12.0068 20.0995 11.9115 20.7582 11.7225 21.4009C11.5336 22.0435 11.2459 22.6178 10.8597 23.1235C10.4732 23.6292 9.99342 24.0453 9.42061 24.372Z" fill="white"/>
<path fill-rule="evenodd" clip-rule="evenodd" d="M46.2981 4.66684C46.2981 8.22232 46.2981 11.7779 46.2981 15.3334C46.2981 17.3379 46.3673 18.5388 47.2926 19.6883C47.9346 20.486 49.4376 21.6667 50.8155 21.6667H51.9448C54.2703 21.6667 56.4622 19.1798 56.4622 16.6667V16.2222C56.4622 14.8902 55.3284 13.3088 54.4991 12.7092C53.1362 11.7237 52.3018 11.6667 50.025 11.6667C49.8885 11.4661 49.7992 11.4713 49.7992 11.2222C49.7992 10.9621 49.9866 10.7777 50.2509 10.7777H51.4932C54.5338 10.7777 57.3657 13.3548 57.3657 16.2222V17.111C57.3657 19.1285 55.7847 20.4805 55.7847 21.3332V21.5555C55.7847 22.2477 56.5009 23.111 57.2528 23.111H57.9304C59.3447 23.111 60.8666 19.0437 60.8666 17.2222V15.6667C60.8666 13.4853 59.1297 10.9972 57.9603 9.85943C56.6764 8.61008 54.2478 7.33337 51.7191 7.33337H51.0415C50.2529 7.33337 48.4441 7.43289 48.4441 8.11112V8.33336C48.4441 9.30791 50.2031 8.5556 51.0415 8.5556H51.1545C55.9475 8.5556 59.6245 12.0791 59.6245 16.7778V16.8889C59.6245 18.2796 58.4663 21.8888 57.5917 21.8888H57.4787C57.2185 21.8888 57.1399 21.8115 57.1399 21.5555V21.3332C57.1399 21.0588 58.7209 18.9478 58.7209 16.9999V16.5554C58.7209 13.064 55.5251 9.55551 52.0579 9.55551H49.9122C49.1892 9.55551 48.557 10.3588 48.557 11.111V11.3333C48.557 13.6204 51.3489 12.6554 52.752 13.2059C54.1419 13.7512 55.22 15.0232 55.22 16.8887C55.22 18.7289 53.319 20.4442 51.3803 20.4442C49.9975 20.4442 48.7078 19.593 48.1789 18.7051C47.3493 17.3127 47.5406 16.503 47.5406 14.4443C47.5406 11.185 47.5406 7.92585 47.5406 4.6666C47.5406 2.87669 47.9566 0 46.1853 0H45.5078C44.649 0 44.0396 0.913031 44.0396 1.77774V3.11109C44.0396 3.48549 44.2392 3.88884 44.6042 3.88884C45.1315 3.88884 45.3947 3.62973 45.3947 3.11109V1.33335C45.6976 1.26207 45.6076 1.22223 45.8465 1.22223C46.0997 1.22223 46.0944 1.31015 46.2983 1.44447L46.2981 4.66684ZM50.5896 26H52.0578C53.2765 26 56.4622 25.175 56.4622 24.3334C56.4622 24.0333 56.4083 24.027 56.3492 23.7779C56.0959 23.7198 56.0896 23.6667 55.7846 23.6667H55.6716C55.5277 23.6667 53.4274 24.7778 52.0578 24.7778H50.8156C48.9205 24.7778 46.8462 23.6095 45.8165 22.6963C45.3064 22.2438 44.5453 21.3397 44.2265 20.7052C43.6197 19.4974 43.1361 18.1517 43.1361 16.7894V6.22258C43.1361 5.96251 43.3235 5.77811 43.5878 5.77811C43.841 5.77811 43.8358 5.86603 44.0396 6.00034C44.0396 9.26015 43.7215 15.1571 44.1969 17.9566C44.5078 19.7877 45.3117 20.8511 46.3828 21.9171C47.1103 22.6412 49.2619 23.8891 50.5897 23.8891H51.2673C51.7235 23.8891 52.0578 23.6472 52.0578 23.2225C52.0578 22.3729 50.3283 22.6068 49.5555 22.3511C48.7707 22.0912 47.9278 21.6585 47.3976 21.1409C46.1371 19.9102 45.3926 18.8786 45.3948 16.4448C45.3968 14.2227 45.3948 12.0004 45.3948 9.77823C45.3948 7.81745 45.9116 4.55604 43.9267 4.55604H43.2491C42.5262 4.55604 41.8939 5.35931 41.8939 6.11154C41.8891 8.28264 41.7974 11.352 41.7769 14.3113C41.7665 15.8083 41.7408 17.2782 42.0253 18.6739C42.4818 20.9136 43.3904 22.5634 44.9636 23.8888C46.3087 25.0222 48.1397 26 50.5896 26Z" fill="white"/>
</svg>
